<svg width="21" height="22" viewBox="0 0 21 22" fill="none" xmlns="http://www.w3.org/2000/svg">
<path d="M1.16675 9.93841C1.16675 8.71422 1.72733 7.55744 2.68817 6.79888L8.18817 2.45677C9.64141 1.30948 11.6921 1.30948 13.1453 2.45677L18.6453 6.79888C19.6062 7.55744 20.1667 8.71422 20.1667 9.93841V16.5C20.1667 18.7091 18.3759 20.5 16.1667 20.5H14.6667C14.1145 20.5 13.6667 20.0523 13.6667 19.5V16.5C13.6667 15.3954 12.7713 14.5 11.6667 14.5H9.66675C8.56218 14.5 7.66675 15.3954 7.66675 16.5V19.5C7.66675 20.0523 7.21903 20.5 6.66675 20.5H5.16675C2.95761 20.5 1.16675 18.7091 1.16675 16.5L1.16675 9.93841Z" fill="white" stroke="white" stroke-width="1.5"/>
</svg>
