<svg width="20" height="18" viewBox="0 0 20 18" fill="none" xmlns="http://www.w3.org/2000/svg">
<path d="M5.49902 -0.00927734C2.46142 -0.00927734 -0.000976562 2.45273 -0.000976562 5.49073C-0.000976562 8.67474 1.81252 11.6787 4.81152 14.4287C5.83512 15.3667 6.93723 16.1897 8.03023 16.9287C8.41333 17.1867 8.77163 17.4208 9.09282 17.6158C9.28863 17.7348 9.41773 17.8208 9.49903 17.8658C9.80103 18.0338 10.197 18.0338 10.499 17.8658C10.5803 17.8208 10.7094 17.7348 10.9052 17.6158C11.2264 17.4208 11.5847 17.1867 11.9678 16.9287C13.0608 16.1897 14.1629 15.3667 15.1865 14.4287C18.1855 11.6787 19.999 8.67474 19.999 5.49073C19.999 2.45273 17.5366 -0.00927734 14.499 -0.00927734C12.7738 -0.00927734 11.0894 0.930736 10.0302 2.30274C8.99743 0.906736 7.31893 -0.00927734 5.49902 -0.00927734Z" fill="white"/>
</svg>
